HIERARCHY
ROOT Reference
{
  OFFSET 0 0 0
  CHANNELS 6 Xposition Yposition Zposition Zrotation Xrotation Yrotation
  JOINT Hips
  {
    OFFSET 251.394 724.17 483.536
    CHANNELS 3 Zrotation Xrotation Yrotation
    JOINT RightUpLeg
    {
      OFFSET -0.450515 -23.4426 -1.37224
      CHANNELS 3 Zrotation Xrotation Yrotation
      JOINT RightLeg
      {
        OFFSET 112.821 0.0872427 -0.321027
        CHANNELS 3 Zrotation Xrotation Yrotation
        JOINT RightFoot
        {
          OFFSET 105.718 0.000193788 0.0213165
          CHANNELS 3 Zrotation Xrotation Yrotation
          JOINT RightToeBase
          {
            OFFSET 37.638 -0.000116272 0.00224792
            CHANNELS 3 Zrotation Xrotation Yrotation
            JOINT RightToeEnd
            {
              OFFSET 21.2112 0.114605 -0.000138184
              CHANNELS 3 Zrotation Xrotation Yrotation
              End Site
              {
                OFFSET 0 0 0
              }
            }
          }
        }
      }
    }
    JOINT LeftUpLeg
    {
      OFFSET -0.449508 23.4315 -1.37054
      CHANNELS 3 Zrotation Xrotation Yrotation
      JOINT LeftLeg
      {
        OFFSET 112.821 -0.0485242 -0.372458
        CHANNELS 3 Zrotation Xrotation Yrotation
        JOINT LeftFoot
        {
          OFFSET 105.716 0.00496094 -0.0229443
          CHANNELS 3 Zrotation Xrotation Yrotation
          JOINT LeftToeBase
          {
            OFFSET 37.639 0 0.00158905
            CHANNELS 3 Zrotation Xrotation Yrotation
            JOINT LeftToeEnd
            {
              OFFSET 21.2113 -0.125031 -0.00017438
              CHANNELS 3 Zrotation Xrotation Yrotation
              End Site
              {
                OFFSET 0 0 0
              }
            }
          }
        }
      }
    }
    JOINT Spine
    {
      OFFSET -5.01225 0.000463591 -9.60395
      CHANNELS 3 Zrotation Xrotation Yrotation
      JOINT Spine1
      {
        OFFSET 26.0222 -0.000271301 -0.000155029
        CHANNELS 3 Zrotation Xrotation Yrotation
        JOINT Spine2
        {
          OFFSET 27.173 -0.000155029 -0.000310058
          CHANNELS 3 Zrotation Xrotation Yrotation
          JOINT Spine3
          {
            OFFSET 36.3953 -0.000232544 7.75146e-005
            CHANNELS 3 Zrotation Xrotation Yrotation
            JOINT Neck
            {
              OFFSET 36.4331 0 -3.00261
              CHANNELS 3 Zrotation Xrotation Yrotation
              JOINT Head
              {
                OFFSET 23.0407 -0.000232544 -0.000310058
                CHANNELS 3 Zrotation Xrotation Yrotation
                End Site
                {
                  OFFSET 0 0 0
                }
              }
            }
            JOINT LeftShoulder
            {
              OFFSET 20.1317 6.74168 -12.6061
              CHANNELS 3 Zrotation Xrotation Yrotation
              JOINT LeftArm
              {
                OFFSET 34.2172 -5.81359e-005 7.75146e-005
                CHANNELS 3 Zrotation Xrotation Yrotation
                JOINT LeftForeArm
                {
                  OFFSET 65.4129 -0.0821605 0.0585235
                  CHANNELS 3 Zrotation Xrotation Yrotation
                  JOINT LeftHand
                  {
                    OFFSET 67.3883 0.0359667 0.0112396
                    CHANNELS 3 Zrotation Xrotation Yrotation
                    JOINT LeftHandThumb1
                    {
                      OFFSET 8.78386 2.85353 -6.05362
                      CHANNELS 3 Zrotation Xrotation Yrotation
                      JOINT LeftHandThumb2
                      {
                        OFFSET 8.25498 -0.000116272 -0.000174407
                        CHANNELS 3 Zrotation Xrotation Yrotation
                        JOINT LeftHandThumb3
                        {
                          OFFSET 7.24822 0.000310058 5.81358e-005
                          CHANNELS 3 Zrotation Xrotation Yrotation
                          JOINT LeftHandThumb4
                          {
                            OFFSET 7.0004 -3.87568e-005 -0.000310057
                            CHANNELS 3 Zrotation Xrotation Yrotation
                            End Site
                            {
                              OFFSET 0 0 0
                            }
                          }
                        }
                      }
                    }
                    JOINT LeftHandIndex1
                    {
                      OFFSET 24.0991 -1.01537 -5.40558
                      CHANNELS 3 Zrotation Xrotation Yrotation
                      JOINT LeftHandIndex2
                      {
                        OFFSET 7.26759 -0.000290679 -0.000465086
                        CHANNELS 3 Zrotation Xrotation Yrotation
                        JOINT LeftHandIndex3
                        {
                          OFFSET 7.13628 -1.93787e-005 0.000232543
                          CHANNELS 3 Zrotation Xrotation Yrotation
                          JOINT LeftHandIndex4
                          {
                            OFFSET 5.46699 9.68932e-005 -0.000387571
                            CHANNELS 3 Zrotation Xrotation Yrotation
                            End Site
                            {
                              OFFSET 0 0 0
                            }
                          }
                        }
                      }
                    }
                    JOINT LeftHandMiddle1
                    {
                      OFFSET 24.4604 -2.52837 0.918567
                      CHANNELS 3 Zrotation Xrotation Yrotation
                      JOINT LeftHandMiddle2
                      {
                        OFFSET 7.41627 -5.81359e-005 0.000116271
                        CHANNELS 3 Zrotation Xrotation Yrotation
                        JOINT LeftHandMiddle3
                        {
                          OFFSET 8.76829 3.87573e-005 -7.75142e-005
                          CHANNELS 3 Zrotation Xrotation Yrotation
                          JOINT LeftHandMiddle4
                          {
                            OFFSET 6.07588 -0.00013565 -5.81356e-005
                            CHANNELS 3 Zrotation Xrotation Yrotation
                            End Site
                            {
                              OFFSET 0 0 0
                            }
                          }
                        }
                      }
                    }
                    JOINT LeftHandRing1
                    {
                      OFFSET 22.465 -1.97467 6.3466
                      CHANNELS 3 Zrotation Xrotation Yrotation
                      JOINT LeftHandRing2
                      {
                        OFFSET 7.36666 -0.000232544 0.000387571
                        CHANNELS 3 Zrotation Xrotation Yrotation
                        JOINT LeftHandRing3
                        {
                          OFFSET 8.07624 -0.000465087 -0.000203475
                          CHANNELS 3 Zrotation Xrotation Yrotation
                          JOINT LeftHandRing4
                          {
                            OFFSET 6.04433 0.00013565 3.87571e-005
                            CHANNELS 3 Zrotation Xrotation Yrotation
                            End Site
                            {
                              OFFSET 0 0 0
                            }
                          }
                        }
                      }
                    }
                    JOINT LeftHandPinky1
                    {
                      OFFSET 19.5278 0.352933 10.4295
                      CHANNELS 3 Zrotation Xrotation Yrotation
                      JOINT LeftHandPinky2
                      {
                        OFFSET 6.16525 5.8136e-005 -0.000251921
                        CHANNELS 3 Zrotation Xrotation Yrotation
                        JOINT LeftHandPinky3
                        {
                          OFFSET 6.14448 -0.000329434 -0.00510625
                          CHANNELS 3 Zrotation Xrotation Yrotation
                          JOINT LeftHandPinky4
                          {
                            OFFSET 4.98555 0.000116272 0.000116271
                            CHANNELS 3 Zrotation Xrotation Yrotation
                            End Site
                            {
                              OFFSET 0 0 0
                            }
                          }
                        }
                      }
                    }
                  }
                }
              }
            }
            JOINT RightShoulder
            {
              OFFSET 20.1309 -6.74152 -12.6063
              CHANNELS 3 Zrotation Xrotation Yrotation
              JOINT RightArm
              {
                OFFSET 34.2171 7.75146e-005 7.75146e-005
                CHANNELS 3 Zrotation Xrotation Yrotation
                JOINT RightForeArm
                {
                  OFFSET 65.4492 0.242543 -0.176501
                  CHANNELS 3 Zrotation Xrotation Yrotation
                  JOINT RightHand
                  {
                    OFFSET 67.3888 -0.0867388 0.0597442
                    CHANNELS 3 Zrotation Xrotation Yrotation
                    JOINT RightHandThumb1
                    {
                      OFFSET 8.78307 -2.85357 -6.05302
                      CHANNELS 3 Zrotation Xrotation Yrotation
                      JOINT RightHandThumb2
                      {
                        OFFSET 8.25493 -7.75145e-005 0
                        CHANNELS 3 Zrotation Xrotation Yrotation
                        JOINT RightHandThumb3
                        {
                          OFFSET 7.24797 -0.000174408 0.000155029
                          CHANNELS 3 Zrotation Xrotation Yrotation
                          JOINT RightHandThumb4
                          {
                            OFFSET 7.00062 0 0
                            CHANNELS 3 Zrotation Xrotation Yrotation
                            End Site
                            {
                              OFFSET 0 0 0
                            }
                          }
                        }
                      }
                    }
                    JOINT RightHandIndex1
                    {
                      OFFSET 24.0991 1.01525 -5.40578
                      CHANNELS 3 Zrotation Xrotation Yrotation
                      JOINT RightHandIndex2
                      {
                        OFFSET 7.26773 7.75144e-005 0.000232543
                        CHANNELS 3 Zrotation Xrotation Yrotation
                        JOINT RightHandIndex3
                        {
                          OFFSET 7.13572 -0.000310058 3.87571e-005
                          CHANNELS 3 Zrotation Xrotation Yrotation
                          JOINT RightHandIndex4
                          {
                            OFFSET 5.46717 0 3.87572e-005
                            CHANNELS 3 Zrotation Xrotation Yrotation
                            End Site
                            {
                              OFFSET 0 0 0
                            }
                          }
                        }
                      }
                    }
                    JOINT RightHandMiddle1
                    {
                      OFFSET 24.4603 2.52899 0.918547
                      CHANNELS 3 Zrotation Xrotation Yrotation
                      JOINT RightHandMiddle2
                      {
                        OFFSET 7.41641 -0.000116272 -0.000116272
                        CHANNELS 3 Zrotation Xrotation Yrotation
                        JOINT RightHandMiddle3
                        {
                          OFFSET 8.76765 -3.87577e-005 0.000232543
                          CHANNELS 3 Zrotation Xrotation Yrotation
                          JOINT RightHandMiddle4
                          {
                            OFFSET 6.07609 -0.000193787 -0.000116271
                            CHANNELS 3 Zrotation Xrotation Yrotation
                            End Site
                            {
                              OFFSET 0 0 0
                            }
                          }
                        }
                      }
                    }
                    JOINT RightHandRing1
                    {
                      OFFSET 22.465 1.97571 6.34696
                      CHANNELS 3 Zrotation Xrotation Yrotation
                      JOINT RightHandRing2
                      {
                        OFFSET 7.36684 0.000193786 0.000155029
                        CHANNELS 3 Zrotation Xrotation Yrotation
                        JOINT RightHandRing3
                        {
                          OFFSET 8.07614 -0.000271301 0
                          CHANNELS 3 Zrotation Xrotation Yrotation
                          JOINT RightHandRing4
                          {
                            OFFSET 6.04468 0.000232543 0
                            CHANNELS 3 Zrotation Xrotation Yrotation
                            End Site
                            {
                              OFFSET 0 0 0
                            }
                          }
                        }
                      }
                    }
                    JOINT RightHandPinky1
                    {
                      OFFSET 19.5277 -0.352346 10.4296
                      CHANNELS 3 Zrotation Xrotation Yrotation
                      JOINT RightHandPinky2
                      {
                        OFFSET 6.16508 0 0.000232543
                        CHANNELS 3 Zrotation Xrotation Yrotation
                        JOINT RightHandPinky3
                        {
                          OFFSET 6.14396 -0.000155048 -0.0048834
                          CHANNELS 3 Zrotation Xrotation Yrotation
                          JOINT RightHandPinky4
                          {
                            OFFSET 4.98577 -7.75146e-005 -7.75143e-005
                            CHANNELS 3 Zrotation Xrotation Yrotation
                            End Site
                            {
                              OFFSET 0 0 0
                            }
                          }
                        }
                      }
                    }
                  }
                }
              }
            }
          }
        }
      }
    }
  }
}
MOTION
Frames:	4
Frame Time:	0.0333333
0 0 0 -90 -7.01671e-015 -180 -21.8058 4.58456 -108.905 179.989 -17.4234 -35.775 0.0654149 -0.152571 -147.394 12.0724 14.1314 96.4497 -0.573127 -0.0960825 77.6763 -3.00831e-005 8.17198e-006 -86.4974 176.52 11.6442 -30.0496 0.122765 -0.961845 -121.237 24.8481 16.954 65.3622 0.592928 -0.0412458 64.7091 0.000115256 -5.47363e-005 -86.4974 -1.19906 -2.40483 157.305 -12.4279 -2.02257 10.2236 4.74914 -4.66487 12.6893 -1.18775 -2.91022 20.2564 -4.33703 -4.4193 15.3967 3.17102 -11.1542 24.3893 84.9244 9.13492 -25.4999 34.1779 5.55882 66.831 -3.24678 -39.9518 84.5103 -54.6155 11.2223 50.9229 -156.765 -5.11795 146.116 0.000391865 1.16948e-005 10.4457 0.000194258 -0.000102389 5.08668 0.000252715 -0.00130828 -0.000138158 -39.1718 85.7134 36.2978 -0.000415659 -0.000213448 1.22296 0.000790736 -0.00073982 -5.25841 -0.000631344 -0.000458932 -3.56204 -9.90399 83.9791 21.6241 1.72456e-005 -0.000196692 1.13492 0.000826016 -0.000797525 0.0332045 -0.000647911 -0.000141197 -3.51382 53.9977 89.5259 -33.6569 1.14668e-005 -0.00092592 3.82448 0.00116018 -0.000405354 3.82459 0.00178157 -0.000777847 -3.56313 73.6505 88.7085 -53.2625 0.000963665 -0.00125217 3.82461 -0.00713484 -0.000596544 3.83484 -0.0122959 -2.88289e-005 -3.69125 -78.51 -23.5386 -15.1537 -12.9378 40.5053 64.8574 19.7947 -6.5304 29.9132 51.0008 42.4063 -40.6107 156.514 5.21115 163.98 -7.87551e-005 -4.59968e-005 10.4461 -4.53819e-006 -1.69416e-005 -3.55125 -0.000213623 -0.000396728 180 -79.4024 -87.0761 -78.455 -0.000311669 -0.000228386 4.33869 0.00019737 4.48909e-005 -5.43856 -0.000108505 -3.04705e-005 176.82 -1.0935 -87.339 4.74387 -1.81575e-005 2.75774e-005 3.4038 0.000117518 0.000176325 -6.15043 -0.000193597 0.000152513 178.21 28.6735 -89.6387 32.1569 0.000150805 -0.000271046 11.2112 0.000211756 0.000386457 -1.49635 9.25064e-005 3.05026e-005 178.21 -90.6908 -88.7967 -89.283 -0.000171487 0.00042526 11.2112 8.20252e-005 -6.6025e-005 -1.4964 0.0037508 -9.15075e-005 178.203 
0 0 0 -90 -7.01671e-015 -180 -21.2892 5.1429 -113.206 179.207 -18.3899 -35.6286 0.0815186 -0.203911 -150.736 11.3714 12.4498 96.6477 -0.573012 -0.0964984 77.7283 -3.08704e-005 4.47438e-007 -86.4974 176.389 13.0546 -29.2429 0.0798328 -0.970271 -124.087 24.4442 17.6261 62.8557 0.593773 -0.0264938 66.1341 0.000115271 -7.27998e-005 -86.4974 -1.18647 -2.41106 157.605 -13.2754 -1.76608 11.1223 5.17169 -4.6385 12.7208 -1.43271 -2.64354 20.3169 -4.41069 -4.69183 15.9349 2.8131 -10.8561 23.8568 85.2453 9.20444 -25.4964 33.6644 5.60791 67.3692 -3.17089 -39.8774 84.4377 -54.3806 11.3783 51.0986 -156.492 -5.28206 145.013 0.000391951 -4.84871e-005 10.4457 0.000194276 -0.00016801 5.08668 0.000252715 -0.00130828 -0.000138158 -43.4552 85.0921 39.8379 -0.000418246 -0.000212942 0.717826 0.000781361 -0.000738866 -5.79291 -0.000636321 -0.00046102 -3.85688 -10.724 83.6201 21.6291 1.68432e-005 -0.000194434 0.666163 0.000816095 -0.000798141 -0.501308 -0.000647016 -0.000141296 -3.76264 67.6033 89.4021 -47.7964 4.80354e-006 -0.000927225 3.28997 0.0011465 -0.000405972 3.29011 0.00049107 -0.000745947 -3.85684 81.2972 88.36 -61.4408 0.000952115 -0.00125341 3.29011 0.0134012 0.000659992 3.32267 -0.0138255 5.47271e-006 -4.01329 -77.6694 -23.5944 -14.3044 -12.6271 40.3712 63.5593 18.7433 -6.18931 29.7036 47.2234 43.0481 -38.1632 157.3 4.96984 164.207 -7.98157e-005 -4.91676e-005 10.4461 -4.57198e-006 -2.17084e-005 -2.31402 -0.000244141 -0.000259399 180 -90.3865 -86.1971 -88.3417 -0.000308259 -0.000224847 5.00889 0.000200443 4.56561e-005 -4.22563 -0.000108201 -3.04858e-005 177.39 -4.0152 -87.8632 4.74306 -2.01298e-005 2.93977e-005 3.99285 0.000112582 0.0001857 -3.97154 -0.000194336 0.000152534 178.487 60.4155 -89.2391 67.8186 0.000147851 -0.000271369 11.3345 0.000198809 0.000379272 0.543823 9.23587e-005 3.05069e-005 178.487 47.5925 -89.7893 53.2501 -0.000173441 0.00042734 11.3344 8.225e-005 -6.44528e-005 0.543788 0.00423952 -9.15203e-005 178.48 
0 0 0 -90 -7.01671e-015 -180 -21.1561 5.53538 -116.242 178.511 -19.2566 -34.8066 0.0712461 -0.205159 -153.205 11.6947 11.0343 96.5643 -0.573769 -0.0915754 77.2485 -3.1593e-005 -1.81822e-005 -86.4974 176.086 14.0351 -28.1985 0.176561 -1.06356 -125.832 24.2274 18.0581 60.3781 0.593899 -0.0235532 66.4178 0.000115335 -0.000109918 -86.4974 -1.18682 -2.41089 157.597 -13.536 -1.48914 11.6875 5.57025 -4.51262 12.4791 -1.46104 -2.58544 20.9395 -4.4529 -4.7886 16.0921 3.26618 -10.7509 23.5365 85.4372 9.19797 -25.5622 33.146 6.09185 68.2669 -2.70493 -39.5555 85.0472 -54.2796 12.052 51.6089 -156.282 -5.41695 144.175 0.000392316 -0.000163219 10.4457 0.000195375 -3.7119e-005 5.08667 0.000252714 -0.00130828 -0.000138158 -46.1708 84.6082 41.9886 -0.000421385 -0.000213094 0.332317 0.000773413 -0.000737159 -6.20079 -0.00064045 -0.000463871 -4.15171 -11.3494 83.3462 21.6331 1.51328e-005 -0.000192729 0.308381 0.000808592 -0.000798128 -0.909204 -0.000645729 -0.000141175 -4.01145 74.3579 89.2911 -54.9585 -2.51373e-006 -0.00092744 2.88205 0.00113682 -0.000407016 2.88218 -0.00079995 -0.000705763 -4.15055 85.077 88.079 -65.6264 0.000943608 -0.00125311 2.88218 -0.000305412 -0.000136843 2.88215 -0.0152024 1.26502e-005 -4.04406 -77.3874 -23.6361 -13.865 -13.247 40.6775 63.4306 17.1278 -3.99453 29.1861 41.8041 43.323 -33.4593 158.042 4.74848 164.427 -7.99653e-005 -5.45979e-005 10.4461 -1.5087e-006 -2.66693e-005 -1.07679 -0.000244141 -0.000259399 180 -97.2946 -85.3044 -94.1147 -0.000306547 -0.000222139 5.67909 0.000203577 3.97838e-005 -3.0127 -0.0001237 -4.57472e-005 177.96 -6.89807 -88.357 4.74262 -2.04096e-005 2.6212e-005 4.61798 0.00010309 0.000197116 -1.79264 -0.000195075 0.000152552 178.765 65.1129 -88.7868 76.3673 0.000150353 -0.000267918 11.4577 0.000187849 0.000372157 2.58399 0.000107141 1.52552e-005 178.765 71.199 -88.5206 81.0322 -0.00017369 0.00042724 11.4577 8.83227e-005 -5.84124e-005 2.58397 0.00472825 -9.1531e-005 178.756 
0 0 0 -90 -7.01671e-015 -180 -20.8924 6.26574 -119.875 178.018 -19.4588 -35.263 0.11892 -0.324196 -155.006 11.574 10.2056 95.6062 -0.574863 -0.0840678 76.5125 -3.20378e-005 -5.43506e-005 -86.4974 176.573 14.9508 -28.6959 0.355984 -1.21742 -126.944 24.217 18.1428 58.2066 0.594146 -0.0163045 67.1174 0.000115441 -0.000185887 -86.4974 -1.17808 -2.41518 157.804 -13.9271 -1.7404 13.096 5.83917 -4.35159 12.4082 -1.29413 -2.73771 21.3243 -4.49479 -4.57055 16.157 3.99346 -11.0346 23.7332 85.205 9.1974 -25.4946 33.1105 6.91406 68.3067 -1.4786 -39.4565 86.5215 -54.5709 13.4531 53.1071 -156.147 -5.50597 143.642 0.000391589 5.16476e-005 10.4458 0.000195353 -4.14094e-005 5.08668 0.000252715 -0.00130828 -0.000138158 -47.712 84.2961 43.1704 -0.000421961 -0.000211662 0.0863968 0.000769528 -0.000736588 -6.46102 -0.000654994 -0.000443683 -4.11755 -11.7482 83.1714 21.6357 1.64654e-005 -0.000191512 0.0802064 0.000805067 -0.000798318 -1.16943 -0.000643515 -0.000141403 -4.26027 77.79 89.2177 -58.6505 -6.74813e-006 -0.0009282 2.62186 0.0011304 -0.0004079 2.62195 -0.00080037 -0.000686614 -4.11639 86.8982 87.8955 -67.7065 0.00093689 -0.00125474 2.62199 0.00654759 0.000176327 2.65281 -0.0165778 2.09239e-005 -4.07485 -76.5405 -23.741 -12.654 -13.4235 40.6265 61.6267 16.4291 -1.02676 29.8896 36.9032 45.1072 -29.148 158.721 4.55424 164.634 -8.04403e-005 -6.3846e-005 10.4461 -1.70411e-006 -2.99703e-005 0.128449 -0.000244141 -0.000274658 180 -102.065 -84.46 -97.7247 -0.000302461 -0.000215728 6.3652 0.000202224 4.01544e-005 -1.79978 -0.000123244 -4.57612e-005 178.531 -9.69435 -88.8083 4.74334 -2.23895e-005 3.10097e-005 5.2769 9.84002e-005 0.000210379 0.328032 -0.0001803 0.000167823 179.042 65.0195 -88.3626 79.9924 0.000153357 -0.000265539 11.6134 0.000172105 0.000364962 4.5756 0.000107067 1.52566e-005 179.042 69.1047 -87.3376 82.9673 -0.000175148 0.000427524 11.6253 -0.00332561 -0.000380989 4.54469 0.00523249 -7.62829e-005 179.033 
